<mxfile host="app.diagrams.net" modified="2024-01-01T17:44:10.017Z" agent="Mozilla/5.0 (Windows NT 10.0; Win64; x64) AppleWebKit/537.36 (KHTML, like Gecko) Chrome/120.0.0.0 Safari/537.36" etag="Tyhzxr_mCIj00tHRDeeT" version="22.1.16" type="github">
  <diagram name="Page-1" id="Ys1ve4o6WVWCSx2JU1tQ">
    <mxGraphModel dx="1050" dy="579" grid="0" gridSize="10" guides="1" tooltips="1" connect="1" arrows="1" fold="1" page="1" pageScale="1" pageWidth="850" pageHeight="1100" background="none" math="0" shadow="1">
      <root>
        <mxCell id="0" />
        <mxCell id="1" parent="0" />
        <mxCell id="uyV6oRQz2y_N2XcmTu1U-3" value="" style="edgeStyle=orthogonalEdgeStyle;rounded=0;orthogonalLoop=1;jettySize=auto;html=1;sketch=1;curveFitting=1;jiggle=2;" parent="1" source="uyV6oRQz2y_N2XcmTu1U-1" target="uyV6oRQz2y_N2XcmTu1U-2" edge="1">
          <mxGeometry relative="1" as="geometry" />
        </mxCell>
        <mxCell id="uyV6oRQz2y_N2XcmTu1U-1" value="Input image&amp;nbsp;" style="rounded=0;whiteSpace=wrap;html=1;sketch=1;curveFitting=1;jiggle=2;" parent="1" vertex="1">
          <mxGeometry x="40" y="40" width="100" height="60" as="geometry" />
        </mxCell>
        <mxCell id="uyV6oRQz2y_N2XcmTu1U-5" value="" style="edgeStyle=orthogonalEdgeStyle;rounded=0;orthogonalLoop=1;jettySize=auto;html=1;sketch=1;curveFitting=1;jiggle=2;" parent="1" source="uyV6oRQz2y_N2XcmTu1U-2" target="uyV6oRQz2y_N2XcmTu1U-4" edge="1">
          <mxGeometry relative="1" as="geometry" />
        </mxCell>
        <mxCell id="uyV6oRQz2y_N2XcmTu1U-2" value="Matrix of a specific shape" style="rounded=0;whiteSpace=wrap;html=1;sketch=1;curveFitting=1;jiggle=2;" parent="1" vertex="1">
          <mxGeometry x="220" y="40" width="100" height="60" as="geometry" />
        </mxCell>
        <mxCell id="uyV6oRQz2y_N2XcmTu1U-18" style="edgeStyle=orthogonalEdgeStyle;rounded=0;orthogonalLoop=1;jettySize=auto;html=1;entryX=0.75;entryY=0;entryDx=0;entryDy=0;sketch=1;curveFitting=1;jiggle=2;" parent="1" source="uyV6oRQz2y_N2XcmTu1U-4" target="uyV6oRQz2y_N2XcmTu1U-16" edge="1">
          <mxGeometry relative="1" as="geometry" />
        </mxCell>
        <mxCell id="uyV6oRQz2y_N2XcmTu1U-21" value="" style="edgeStyle=orthogonalEdgeStyle;rounded=0;orthogonalLoop=1;jettySize=auto;html=1;sketch=1;curveFitting=1;jiggle=2;" parent="1" source="uyV6oRQz2y_N2XcmTu1U-4" target="uyV6oRQz2y_N2XcmTu1U-20" edge="1">
          <mxGeometry relative="1" as="geometry" />
        </mxCell>
        <mxCell id="uyV6oRQz2y_N2XcmTu1U-4" value="Edge detection by filtering process" style="rounded=0;whiteSpace=wrap;html=1;sketch=1;curveFitting=1;jiggle=2;" parent="1" vertex="1">
          <mxGeometry x="400" y="40" width="100" height="60" as="geometry" />
        </mxCell>
        <mxCell id="uyV6oRQz2y_N2XcmTu1U-9" value="Filtering can prone to loss of information so that we pads the input matrix. There is one more thing which is known as strides which also helps to calculate the filteing matrix" style="whiteSpace=wrap;html=1;rounded=0;sketch=1;curveFitting=1;jiggle=2;" parent="1" vertex="1">
          <mxGeometry x="120" y="320" width="215" height="105" as="geometry" />
        </mxCell>
        <mxCell id="uyV6oRQz2y_N2XcmTu1U-16" value="There will be a matrix specific to the desired edge. if it got multiplied with the input matrix then edges will be detected." style="rounded=0;whiteSpace=wrap;html=1;sketch=1;curveFitting=1;jiggle=2;" parent="1" vertex="1">
          <mxGeometry x="260" y="170" width="160" height="90" as="geometry" />
        </mxCell>
        <mxCell id="uyV6oRQz2y_N2XcmTu1U-19" style="edgeStyle=orthogonalEdgeStyle;rounded=0;orthogonalLoop=1;jettySize=auto;html=1;entryX=0.716;entryY=0.017;entryDx=0;entryDy=0;entryPerimeter=0;sketch=1;curveFitting=1;jiggle=2;" parent="1" source="uyV6oRQz2y_N2XcmTu1U-16" target="uyV6oRQz2y_N2XcmTu1U-9" edge="1">
          <mxGeometry relative="1" as="geometry" />
        </mxCell>
        <mxCell id="uyV6oRQz2y_N2XcmTu1U-23" value="" style="edgeStyle=orthogonalEdgeStyle;rounded=0;orthogonalLoop=1;jettySize=auto;html=1;sketch=1;curveFitting=1;jiggle=2;" parent="1" source="uyV6oRQz2y_N2XcmTu1U-20" target="uyV6oRQz2y_N2XcmTu1U-22" edge="1">
          <mxGeometry relative="1" as="geometry" />
        </mxCell>
        <mxCell id="uyV6oRQz2y_N2XcmTu1U-20" value="Pooling layer for feature extraction." style="rounded=0;whiteSpace=wrap;html=1;sketch=1;curveFitting=1;jiggle=2;" parent="1" vertex="1">
          <mxGeometry x="580" y="40" width="100" height="60" as="geometry" />
        </mxCell>
        <mxCell id="uyV6oRQz2y_N2XcmTu1U-22" value="Output" style="rounded=0;whiteSpace=wrap;html=1;sketch=1;curveFitting=1;jiggle=2;" parent="1" vertex="1">
          <mxGeometry x="580" y="180" width="100" height="60" as="geometry" />
        </mxCell>
      </root>
    </mxGraphModel>
  </diagram>
</mxfile>
